<mxfile host="www.draw.io" modified="2020-01-13T08:49:56.798Z" agent="Mozilla/5.0 (Windows NT 10.0; Win64; x64) AppleWebKit/537.36 (KHTML, like Gecko) Chrome/79.0.3945.88 Safari/537.36" etag="aqJjNe8zFiDQZF7t1AAr" version="12.5.1" type="github">
  <diagram id="RBXhvTLkGayfinSpyXUP" name="Page-1">
    <mxGraphModel dx="1278" dy="556" grid="1" gridSize="10" guides="1" tooltips="1" connect="1" arrows="1" fold="1" page="1" pageScale="1" pageWidth="827" pageHeight="1169" math="0" shadow="0">
      <root>
        <mxCell id="0"/>
        <mxCell id="1" parent="0"/>
        <mxCell id="XaaMUyXwHIH6k-2O6eoy-1" value="&lt;span&gt;IT Enterprise Environment&lt;/span&gt;" style="rounded=0;whiteSpace=wrap;html=1;dashed=1;dashPattern=1 1;strokeColor=none;strokeWidth=2;fontSize=12;align=left;fillColor=#d5e8d4;verticalAlign=top;fontStyle=1" vertex="1" parent="1">
          <mxGeometry x="550" y="50" width="230" height="340" as="geometry"/>
        </mxCell>
        <mxCell id="XaaMUyXwHIH6k-2O6eoy-2" value="&lt;b&gt;STACKL&lt;/b&gt;" style="rounded=0;whiteSpace=wrap;html=1;dashed=1;dashPattern=1 1;strokeColor=none;strokeWidth=2;fontSize=12;align=left;fillColor=#f5f5f5;fontColor=#333333;verticalAlign=top;" vertex="1" parent="1">
          <mxGeometry x="95" y="50" width="455" height="340" as="geometry"/>
        </mxCell>
        <mxCell id="XaaMUyXwHIH6k-2O6eoy-3" value="Producer" style="shape=umlActor;verticalLabelPosition=bottom;labelBackgroundColor=#ffffff;verticalAlign=top;html=1;outlineConnect=0;fontSize=14;" vertex="1" parent="1">
          <mxGeometry x="10" y="130" width="45" height="85" as="geometry"/>
        </mxCell>
        <mxCell id="XaaMUyXwHIH6k-2O6eoy-4" value="API&lt;br style=&quot;font-size: 14px;&quot;&gt;Interface" style="rounded=1;whiteSpace=wrap;html=1;fillColor=#f8cecc;strokeColor=#b85450;strokeWidth=2;fontSize=14;" vertex="1" parent="1">
          <mxGeometry x="120" y="100" width="60" height="130" as="geometry"/>
        </mxCell>
        <mxCell id="XaaMUyXwHIH6k-2O6eoy-5" value="Task Broker" style="rounded=1;whiteSpace=wrap;html=1;strokeWidth=2;fontSize=14;fillColor=#e1d5e7;strokeColor=#9673a6;" vertex="1" parent="1">
          <mxGeometry x="240" y="126" width="160" height="37" as="geometry"/>
        </mxCell>
        <mxCell id="XaaMUyXwHIH6k-2O6eoy-6" value="Worker" style="rounded=1;whiteSpace=wrap;html=1;strokeWidth=2;fontSize=14;fillColor=#e1d5e7;strokeColor=#9673a6;" vertex="1" parent="1">
          <mxGeometry x="245" y="198" width="60" height="30" as="geometry"/>
        </mxCell>
        <mxCell id="XaaMUyXwHIH6k-2O6eoy-7" value="Worker" style="rounded=1;whiteSpace=wrap;html=1;strokeWidth=2;fontSize=14;fillColor=#e1d5e7;strokeColor=#9673a6;" vertex="1" parent="1">
          <mxGeometry x="321.5" y="198" width="60" height="30" as="geometry"/>
        </mxCell>
        <mxCell id="XaaMUyXwHIH6k-2O6eoy-8" value="Document Datastore" style="rounded=1;whiteSpace=wrap;html=1;strokeWidth=2;fontSize=14;fillColor=#dae8fc;strokeColor=#6c8ebf;" vertex="1" parent="1">
          <mxGeometry x="223" y="262" width="190" height="60" as="geometry"/>
        </mxCell>
        <mxCell id="XaaMUyXwHIH6k-2O6eoy-9" value="Authorization Module" style="rounded=1;whiteSpace=wrap;html=1;strokeWidth=2;fontSize=14;fillColor=#ffe6cc;strokeColor=#d79b00;" vertex="1" parent="1">
          <mxGeometry x="115" y="262" width="95" height="60" as="geometry"/>
        </mxCell>
        <mxCell id="XaaMUyXwHIH6k-2O6eoy-10" value="Configs" style="html=1;verticalLabelPosition=bottom;align=center;labelBackgroundColor=none;verticalAlign=top;strokeWidth=1;strokeColor=#0080F0;shadow=0;dashed=0;shape=mxgraph.ios7.icons.documents;" vertex="1" parent="1">
          <mxGeometry x="234.5" y="305" width="76" height="57" as="geometry"/>
        </mxCell>
        <mxCell id="XaaMUyXwHIH6k-2O6eoy-11" value="env" style="html=1;verticalLabelPosition=middle;align=center;labelBackgroundColor=#ffffff;verticalAlign=middle;strokeWidth=1;strokeColor=#000000;shadow=0;dashed=1;shape=mxgraph.ios7.icons.document;labelPosition=center;dashPattern=1 1;" vertex="1" parent="1">
          <mxGeometry x="237.5" y="322.5" width="30" height="25" as="geometry"/>
        </mxCell>
        <mxCell id="XaaMUyXwHIH6k-2O6eoy-12" value="zone" style="html=1;verticalLabelPosition=middle;align=center;labelBackgroundColor=#ffffff;verticalAlign=middle;strokeWidth=1;strokeColor=#000000;shadow=0;dashed=1;shape=mxgraph.ios7.icons.document;labelPosition=center;dashPattern=1 1;" vertex="1" parent="1">
          <mxGeometry x="271.5" y="322.5" width="30" height="25" as="geometry"/>
        </mxCell>
        <mxCell id="XaaMUyXwHIH6k-2O6eoy-13" value="Items" style="html=1;verticalLabelPosition=bottom;align=center;labelBackgroundColor=none;verticalAlign=top;strokeWidth=1;strokeColor=#0080F0;shadow=0;dashed=0;shape=mxgraph.ios7.icons.documents;" vertex="1" parent="1">
          <mxGeometry x="332" y="305" width="76" height="57" as="geometry"/>
        </mxCell>
        <mxCell id="XaaMUyXwHIH6k-2O6eoy-14" value="stack" style="html=1;verticalLabelPosition=middle;align=center;labelBackgroundColor=#ffffff;verticalAlign=middle;strokeWidth=1;strokeColor=#000000;shadow=0;dashed=1;shape=mxgraph.ios7.icons.document;labelPosition=center;dashPattern=1 1;" vertex="1" parent="1">
          <mxGeometry x="335" y="322.5" width="30" height="25" as="geometry"/>
        </mxCell>
        <mxCell id="XaaMUyXwHIH6k-2O6eoy-15" value="service" style="html=1;verticalLabelPosition=middle;align=center;labelBackgroundColor=#ffffff;verticalAlign=middle;strokeWidth=1;strokeColor=#000000;shadow=0;dashed=1;shape=mxgraph.ios7.icons.document;labelPosition=center;dashPattern=1 1;" vertex="1" parent="1">
          <mxGeometry x="369" y="322.5" width="30" height="25" as="geometry"/>
        </mxCell>
        <mxCell id="XaaMUyXwHIH6k-2O6eoy-16" value="Monitoring Module" style="rounded=1;whiteSpace=wrap;html=1;strokeWidth=2;fontSize=14;fillColor=#ffe6cc;strokeColor=#d79b00;" vertex="1" parent="1">
          <mxGeometry x="439" y="263" width="80" height="60" as="geometry"/>
        </mxCell>
        <mxCell id="XaaMUyXwHIH6k-2O6eoy-17" value="..." style="text;html=1;strokeColor=none;fillColor=none;align=center;verticalAlign=middle;whiteSpace=wrap;rounded=0;dashed=1;dashPattern=1 1;fontSize=12;" vertex="1" parent="1">
          <mxGeometry x="347" y="342" width="40" height="20" as="geometry"/>
        </mxCell>
        <mxCell id="XaaMUyXwHIH6k-2O6eoy-18" value="..." style="text;html=1;strokeColor=none;fillColor=none;align=center;verticalAlign=middle;whiteSpace=wrap;rounded=0;dashed=1;dashPattern=1 1;fontSize=12;" vertex="1" parent="1">
          <mxGeometry x="246" y="340" width="44" height="24" as="geometry"/>
        </mxCell>
        <mxCell id="XaaMUyXwHIH6k-2O6eoy-19" value="Agent" style="rounded=1;whiteSpace=wrap;html=1;strokeWidth=2;fontSize=14;fillColor=#fff2cc;strokeColor=#d6b656;" vertex="1" parent="1">
          <mxGeometry x="580" y="184" width="50" height="35" as="geometry"/>
        </mxCell>
        <mxCell id="XaaMUyXwHIH6k-2O6eoy-20" value="" style="endArrow=classic;html=1;fontSize=16;align=center;labelPosition=center;verticalLabelPosition=middle;verticalAlign=middle;horizontal=0;" edge="1" parent="1">
          <mxGeometry width="50" height="50" relative="1" as="geometry">
            <mxPoint x="60" y="160" as="sourcePoint"/>
            <mxPoint x="120" y="160" as="targetPoint"/>
          </mxGeometry>
        </mxCell>
        <mxCell id="XaaMUyXwHIH6k-2O6eoy-21" value="&lt;font style=&quot;font-size: 12px&quot;&gt;requests&lt;/font&gt;" style="text;html=1;align=center;verticalAlign=bottom;resizable=0;points=[];;labelBackgroundColor=none;fontSize=16;labelPosition=center;verticalLabelPosition=top;" vertex="1" connectable="0" parent="XaaMUyXwHIH6k-2O6eoy-20">
          <mxGeometry x="-0.5676" y="3" relative="1" as="geometry">
            <mxPoint x="14" y="1" as="offset"/>
          </mxGeometry>
        </mxCell>
        <mxCell id="XaaMUyXwHIH6k-2O6eoy-22" value="" style="endArrow=classic;html=1;fontSize=16;entryX=-0.04;entryY=0.382;entryDx=0;entryDy=0;entryPerimeter=0;align=center;labelPosition=center;verticalLabelPosition=middle;verticalAlign=middle;horizontal=0;" edge="1" parent="1">
          <mxGeometry width="50" height="50" relative="1" as="geometry">
            <mxPoint x="115.20000000000005" y="194.94000000000005" as="sourcePoint"/>
            <mxPoint x="58" y="195" as="targetPoint"/>
          </mxGeometry>
        </mxCell>
        <mxCell id="XaaMUyXwHIH6k-2O6eoy-23" value="&lt;font style=&quot;font-size: 12px&quot;&gt;returns&lt;br&gt;&lt;/font&gt;" style="text;html=1;align=center;verticalAlign=bottom;resizable=0;points=[];;labelBackgroundColor=none;fontSize=16;labelPosition=center;verticalLabelPosition=top;" vertex="1" connectable="0" parent="XaaMUyXwHIH6k-2O6eoy-22">
          <mxGeometry x="-0.5676" y="3" relative="1" as="geometry">
            <mxPoint x="-14" y="-5" as="offset"/>
          </mxGeometry>
        </mxCell>
        <mxCell id="XaaMUyXwHIH6k-2O6eoy-24" value="" style="endArrow=classic;html=1;fontSize=16;entryX=-0.04;entryY=0.382;entryDx=0;entryDy=0;entryPerimeter=0;align=center;labelPosition=center;verticalLabelPosition=middle;verticalAlign=middle;horizontal=0;" edge="1" parent="1">
          <mxGeometry width="50" height="50" relative="1" as="geometry">
            <mxPoint x="180" y="140" as="sourcePoint"/>
            <mxPoint x="237.5999999999999" y="139.94000000000005" as="targetPoint"/>
          </mxGeometry>
        </mxCell>
        <mxCell id="XaaMUyXwHIH6k-2O6eoy-25" value="&lt;font style=&quot;font-size: 12px&quot;&gt;submits&lt;br&gt;task&lt;br&gt;&lt;/font&gt;" style="text;html=1;align=center;verticalAlign=bottom;resizable=0;points=[];;labelBackgroundColor=none;fontSize=16;labelPosition=center;verticalLabelPosition=top;" vertex="1" connectable="0" parent="XaaMUyXwHIH6k-2O6eoy-24">
          <mxGeometry x="-0.5676" y="3" relative="1" as="geometry">
            <mxPoint x="14" y="1" as="offset"/>
          </mxGeometry>
        </mxCell>
        <mxCell id="XaaMUyXwHIH6k-2O6eoy-26" value="" style="endArrow=classic;html=1;fontSize=16;entryX=-0.04;entryY=0.382;entryDx=0;entryDy=0;entryPerimeter=0;align=right;labelPosition=center;verticalLabelPosition=bottom;verticalAlign=top;horizontal=0;" edge="1" parent="1">
          <mxGeometry width="50" height="50" relative="1" as="geometry">
            <mxPoint x="237.5999999999999" y="152.94000000000005" as="sourcePoint"/>
            <mxPoint x="180" y="153" as="targetPoint"/>
          </mxGeometry>
        </mxCell>
        <mxCell id="XaaMUyXwHIH6k-2O6eoy-27" value="&lt;font style=&quot;font-size: 12px&quot;&gt;returns &lt;br&gt;result&lt;br&gt;&lt;/font&gt;" style="text;html=1;align=center;verticalAlign=bottom;resizable=0;points=[];;labelBackgroundColor=none;fontSize=16;labelPosition=center;verticalLabelPosition=top;" vertex="1" connectable="0" parent="XaaMUyXwHIH6k-2O6eoy-26">
          <mxGeometry x="-0.5676" y="3" relative="1" as="geometry">
            <mxPoint x="-12.5" y="34" as="offset"/>
          </mxGeometry>
        </mxCell>
        <mxCell id="XaaMUyXwHIH6k-2O6eoy-28" value="..." style="text;html=1;strokeColor=none;fillColor=none;align=center;verticalAlign=middle;whiteSpace=wrap;rounded=0;dashed=1;dashPattern=1 1;fontSize=16;" vertex="1" parent="1">
          <mxGeometry x="385" y="206" width="14" height="13" as="geometry"/>
        </mxCell>
        <mxCell id="XaaMUyXwHIH6k-2O6eoy-29" value="delegates" style="endArrow=classic;startArrow=classic;html=1;fontSize=12;align=left;entryX=0.5;entryY=1;entryDx=0;entryDy=0;labelBackgroundColor=none;spacingLeft=3;endSize=6;" edge="1" parent="1">
          <mxGeometry width="50" height="50" relative="1" as="geometry">
            <mxPoint x="313" y="200" as="sourcePoint"/>
            <mxPoint x="313" y="163" as="targetPoint"/>
          </mxGeometry>
        </mxCell>
        <mxCell id="XaaMUyXwHIH6k-2O6eoy-30" value="authorizes" style="endArrow=classic;startArrow=classic;html=1;fontSize=12;align=left;entryX=0.5;entryY=1;entryDx=0;entryDy=0;labelBackgroundColor=none;exitX=0.373;exitY=0.01;exitDx=0;exitDy=0;exitPerimeter=0;spacingRight=0;spacingLeft=3;" edge="1" parent="1" source="XaaMUyXwHIH6k-2O6eoy-9" target="XaaMUyXwHIH6k-2O6eoy-4">
          <mxGeometry x="0.1574" width="50" height="50" relative="1" as="geometry">
            <mxPoint x="190" y="281" as="sourcePoint"/>
            <mxPoint x="190" y="250" as="targetPoint"/>
            <mxPoint as="offset"/>
          </mxGeometry>
        </mxCell>
        <mxCell id="XaaMUyXwHIH6k-2O6eoy-31" value="interacts" style="endArrow=classic;startArrow=classic;html=1;fontSize=12;align=left;labelBackgroundColor=none;spacingLeft=3;" edge="1" parent="1">
          <mxGeometry x="0.1574" width="50" height="50" relative="1" as="geometry">
            <mxPoint x="312" y="261" as="sourcePoint"/>
            <mxPoint x="312" y="222" as="targetPoint"/>
            <mxPoint as="offset"/>
          </mxGeometry>
        </mxCell>
        <mxCell id="XaaMUyXwHIH6k-2O6eoy-32" value="Agent Broker" style="rounded=1;whiteSpace=wrap;html=1;strokeWidth=2;fontSize=14;fillColor=#fff2cc;strokeColor=#d6b656;" vertex="1" parent="1">
          <mxGeometry x="439" y="180" width="100" height="46" as="geometry"/>
        </mxCell>
        <mxCell id="XaaMUyXwHIH6k-2O6eoy-33" value="interacts" style="endArrow=classic;startArrow=classic;html=1;fontSize=12;align=center;labelBackgroundColor=none;exitX=0;exitY=0.75;exitDx=0;exitDy=0;spacingLeft=2;" edge="1" parent="1">
          <mxGeometry x="0.45" y="-13" width="50" height="50" relative="1" as="geometry">
            <mxPoint x="437" y="210.5" as="sourcePoint"/>
            <mxPoint x="397" y="210.5" as="targetPoint"/>
            <mxPoint as="offset"/>
          </mxGeometry>
        </mxCell>
        <mxCell id="XaaMUyXwHIH6k-2O6eoy-34" value="Reports" style="endArrow=classic;startArrow=none;html=1;fontSize=12;align=center;labelBackgroundColor=none;exitX=-0.01;exitY=0.044;exitDx=0;exitDy=0;spacingLeft=2;startFill=0;exitPerimeter=0;entryX=0.994;entryY=0.973;entryDx=0;entryDy=0;entryPerimeter=0;" edge="1" parent="1" source="XaaMUyXwHIH6k-2O6eoy-32" target="XaaMUyXwHIH6k-2O6eoy-5">
          <mxGeometry x="-0.2582" y="-21" width="50" height="50" relative="1" as="geometry">
            <mxPoint x="449" y="226.5" as="sourcePoint"/>
            <mxPoint x="409" y="226.5" as="targetPoint"/>
            <mxPoint as="offset"/>
          </mxGeometry>
        </mxCell>
        <mxCell id="XaaMUyXwHIH6k-2O6eoy-35" value="interacts" style="endArrow=classic;startArrow=classic;html=1;fontSize=12;align=center;labelBackgroundColor=none;exitX=0.028;exitY=0.003;exitDx=0;exitDy=0;spacingLeft=2;exitPerimeter=0;" edge="1" parent="1" source="XaaMUyXwHIH6k-2O6eoy-16">
          <mxGeometry x="-0.4757" y="-18" width="50" height="50" relative="1" as="geometry">
            <mxPoint x="449" y="221.5" as="sourcePoint"/>
            <mxPoint x="396" y="230" as="targetPoint"/>
            <mxPoint as="offset"/>
          </mxGeometry>
        </mxCell>
        <mxCell id="XaaMUyXwHIH6k-2O6eoy-36" value="interacts" style="endArrow=classic;startArrow=classic;html=1;fontSize=12;align=center;labelBackgroundColor=none;exitX=0.623;exitY=-0.003;exitDx=0;exitDy=0;spacingLeft=10;exitPerimeter=0;entryX=0.5;entryY=1;entryDx=0;entryDy=0;verticalAlign=middle;spacingBottom=-10;" edge="1" parent="1">
          <mxGeometry x="0.3969" y="-21" width="50" height="50" relative="1" as="geometry">
            <mxPoint x="481.8399999999999" y="262.81999999999994" as="sourcePoint"/>
            <mxPoint x="482" y="226" as="targetPoint"/>
            <mxPoint as="offset"/>
          </mxGeometry>
        </mxCell>
        <mxCell id="XaaMUyXwHIH6k-2O6eoy-37" value="Stack Instance" style="shape=image;html=1;verticalLabelPosition=bottom;labelBackgroundColor=none;verticalAlign=top;imageAspect=1;aspect=fixed;image=img/clipart/Gear_128x128.png;dashed=1;strokeColor=#000000;strokeWidth=1;fillColor=#ffffff;fontSize=12;align=center;labelPosition=center;imageBorder=none;spacingBottom=0;spacingTop=-8;labelBorderColor=#666666;" vertex="1" parent="1">
          <mxGeometry x="665.5" y="291.5" width="26" height="31" as="geometry"/>
        </mxCell>
        <mxCell id="XaaMUyXwHIH6k-2O6eoy-38" value="communicates" style="endArrow=classic;startArrow=classic;html=1;fontSize=12;align=center;labelBackgroundColor=none;spacingLeft=10;verticalAlign=middle;spacingBottom=-10;exitX=0.017;exitY=0.199;exitDx=0;exitDy=0;entryX=1;entryY=0.25;entryDx=0;entryDy=0;exitPerimeter=0;" edge="1" parent="1" source="XaaMUyXwHIH6k-2O6eoy-19" target="XaaMUyXwHIH6k-2O6eoy-32">
          <mxGeometry x="-0.4788" y="-22" width="50" height="50" relative="1" as="geometry">
            <mxPoint x="571.0999999999999" y="198.40999999999997" as="sourcePoint"/>
            <mxPoint x="539" y="199" as="targetPoint"/>
            <mxPoint as="offset"/>
          </mxGeometry>
        </mxCell>
        <mxCell id="XaaMUyXwHIH6k-2O6eoy-39" value="invokes/monitors" style="endArrow=classic;startArrow=classic;html=1;fontSize=12;align=center;labelBackgroundColor=none;spacingLeft=0;verticalAlign=middle;spacingBottom=-12;exitX=0;exitY=0.5;exitDx=0;exitDy=0;entryX=0.982;entryY=0.107;entryDx=0;entryDy=0;entryPerimeter=0;" edge="1" parent="1">
          <mxGeometry x="1" y="12" width="50" height="50" relative="1" as="geometry">
            <mxPoint x="670" y="212" as="sourcePoint"/>
            <mxPoint x="629.0999999999999" y="211.745" as="targetPoint"/>
            <mxPoint x="-9" y="-4" as="offset"/>
            <Array as="points"/>
          </mxGeometry>
        </mxCell>
        <mxCell id="XaaMUyXwHIH6k-2O6eoy-40" value="..." style="text;html=1;strokeColor=none;fillColor=none;align=center;verticalAlign=middle;whiteSpace=wrap;rounded=0;dashed=1;dashPattern=1 1;fontSize=16;" vertex="1" parent="1">
          <mxGeometry x="687" y="138" width="40" height="20" as="geometry"/>
        </mxCell>
        <mxCell id="XaaMUyXwHIH6k-2O6eoy-41" value="Automation Endpoint" style="rounded=1;whiteSpace=wrap;html=1;strokeWidth=2;fontSize=14;" vertex="1" parent="1">
          <mxGeometry x="670" y="167" width="88" height="42" as="geometry"/>
        </mxCell>
        <mxCell id="XaaMUyXwHIH6k-2O6eoy-42" value="Automation Endpoint" style="rounded=1;whiteSpace=wrap;html=1;strokeWidth=2;fontSize=14;" vertex="1" parent="1">
          <mxGeometry x="670" y="214" width="88" height="38" as="geometry"/>
        </mxCell>
        <mxCell id="XaaMUyXwHIH6k-2O6eoy-43" value="Creation of" style="endArrow=classic;html=1;labelBackgroundColor=none;fontSize=10;align=center;entryX=1;entryY=0.25;entryDx=0;entryDy=0;dashed=1;" edge="1" parent="1" target="XaaMUyXwHIH6k-2O6eoy-37">
          <mxGeometry x="-0.3104" y="28" width="50" height="50" relative="1" as="geometry">
            <mxPoint x="720" y="260" as="sourcePoint"/>
            <mxPoint x="250" y="410" as="targetPoint"/>
            <Array as="points">
              <mxPoint x="720" y="280"/>
            </Array>
            <mxPoint as="offset"/>
          </mxGeometry>
        </mxCell>
      </root>
    </mxGraphModel>
  </diagram>
</mxfile>
